<mxfile host="65bd71144e" modified="2020-11-06T00:07:03.485Z" agent="5.0 (Macintosh; Intel Mac OS X 10_13_6) AppleWebKit/537.36 (KHTML, like Gecko) Code/1.50.0 Chrome/83.0.4103.122 Electron/9.2.1 Safari/537.36" etag="CxEYHPKQ7st0b7KQ6enW" version="13.6.5">
    <diagram id="dR1j97NGXjRHPyE2NPLm" name="Page-1">
        <mxGraphModel dx="1497" dy="581" grid="1" gridSize="10" guides="1" tooltips="1" connect="1" arrows="1" fold="1" page="1" pageScale="1" pageWidth="850" pageHeight="1100" math="0" shadow="0">
            <root>
                <mxCell id="0"/>
                <mxCell id="1" parent="0"/>
                <mxCell id="2" value="CDN" style="ellipse;whiteSpace=wrap;html=1;" parent="1" vertex="1">
                    <mxGeometry x="360" y="30" width="120" height="80" as="geometry"/>
                </mxCell>
                <mxCell id="3" value="&lt;font style=&quot;font-size: 10px&quot;&gt;DNS/GSLB&lt;br&gt;aas&lt;br&gt;&lt;/font&gt;" style="rounded=1;whiteSpace=wrap;html=1;" parent="1" vertex="1">
                    <mxGeometry x="560" y="40" width="60" height="60" as="geometry"/>
                </mxCell>
                <mxCell id="119" value="" style="group" parent="1" vertex="1" connectable="0">
                    <mxGeometry x="30" y="140" width="780" height="420" as="geometry"/>
                </mxCell>
                <mxCell id="90" value="" style="group" parent="119" vertex="1" connectable="0">
                    <mxGeometry x="10" y="30" width="240" height="390" as="geometry"/>
                </mxCell>
                <mxCell id="45" value="Region A" style="rounded=1;whiteSpace=wrap;html=1;align=center;verticalAlign=top;" parent="90" vertex="1">
                    <mxGeometry width="240" height="390" as="geometry"/>
                </mxCell>
                <mxCell id="5" value="AZ a-b" style="rounded=1;whiteSpace=wrap;html=1;align=center;verticalAlign=top;" parent="90" vertex="1">
                    <mxGeometry x="32.5" y="25" width="175" height="160" as="geometry"/>
                </mxCell>
                <mxCell id="38" value="" style="group" parent="90" vertex="1" connectable="0">
                    <mxGeometry x="75" y="60" width="90" height="90" as="geometry"/>
                </mxCell>
                <mxCell id="11" value="" style="rounded=1;whiteSpace=wrap;html=1;align=center;" parent="38" vertex="1">
                    <mxGeometry width="50" height="50" as="geometry"/>
                </mxCell>
                <mxCell id="12" value="" style="rounded=1;whiteSpace=wrap;html=1;align=center;" parent="38" vertex="1">
                    <mxGeometry x="20" y="20" width="50" height="50" as="geometry"/>
                </mxCell>
                <mxCell id="13" value="" style="rounded=1;whiteSpace=wrap;html=1;align=center;" parent="38" vertex="1">
                    <mxGeometry x="40" y="40" width="50" height="50" as="geometry"/>
                </mxCell>
                <mxCell id="89" value="" style="group" parent="90" vertex="1" connectable="0">
                    <mxGeometry x="45" y="230" width="150" height="130" as="geometry"/>
                </mxCell>
                <mxCell id="30" value="" style="rounded=1;whiteSpace=wrap;html=1;align=center;" parent="89" vertex="1">
                    <mxGeometry width="150" height="130" as="geometry"/>
                </mxCell>
                <mxCell id="88" value="" style="group" parent="89" vertex="1" connectable="0">
                    <mxGeometry x="30" y="30" width="90" height="70" as="geometry"/>
                </mxCell>
                <mxCell id="6" value="" style="rounded=1;whiteSpace=wrap;html=1;verticalAlign=top;" parent="88" vertex="1">
                    <mxGeometry width="70" height="50" as="geometry"/>
                </mxCell>
                <mxCell id="85" value="" style="rounded=1;whiteSpace=wrap;html=1;verticalAlign=top;" parent="88" vertex="1">
                    <mxGeometry x="10" y="10" width="70" height="50" as="geometry"/>
                </mxCell>
                <mxCell id="86" value="EIB" style="rounded=1;whiteSpace=wrap;html=1;verticalAlign=top;" parent="88" vertex="1">
                    <mxGeometry x="20" y="20" width="70" height="50" as="geometry"/>
                </mxCell>
                <mxCell id="91" value="" style="group" parent="119" vertex="1" connectable="0">
                    <mxGeometry x="270" y="30" width="240" height="390" as="geometry"/>
                </mxCell>
                <mxCell id="92" value="Region A" style="rounded=1;whiteSpace=wrap;html=1;align=center;verticalAlign=top;" parent="91" vertex="1">
                    <mxGeometry width="240" height="390" as="geometry"/>
                </mxCell>
                <mxCell id="93" value="AZ a-b" style="rounded=1;whiteSpace=wrap;html=1;align=center;verticalAlign=top;" parent="91" vertex="1">
                    <mxGeometry x="32.5" y="25" width="175" height="160" as="geometry"/>
                </mxCell>
                <mxCell id="94" value="" style="group" parent="91" vertex="1" connectable="0">
                    <mxGeometry x="75" y="60" width="90" height="90" as="geometry"/>
                </mxCell>
                <mxCell id="95" value="" style="rounded=1;whiteSpace=wrap;html=1;align=center;" parent="94" vertex="1">
                    <mxGeometry width="50" height="50" as="geometry"/>
                </mxCell>
                <mxCell id="96" value="" style="rounded=1;whiteSpace=wrap;html=1;align=center;" parent="94" vertex="1">
                    <mxGeometry x="20" y="20" width="50" height="50" as="geometry"/>
                </mxCell>
                <mxCell id="97" value="" style="rounded=1;whiteSpace=wrap;html=1;align=center;" parent="94" vertex="1">
                    <mxGeometry x="40" y="40" width="50" height="50" as="geometry"/>
                </mxCell>
                <mxCell id="98" value="" style="group" parent="91" vertex="1" connectable="0">
                    <mxGeometry x="45" y="230" width="150" height="130" as="geometry"/>
                </mxCell>
                <mxCell id="99" value="" style="rounded=1;whiteSpace=wrap;html=1;align=center;" parent="98" vertex="1">
                    <mxGeometry width="150" height="130" as="geometry"/>
                </mxCell>
                <mxCell id="100" value="" style="group" parent="98" vertex="1" connectable="0">
                    <mxGeometry x="30" y="30" width="90" height="70" as="geometry"/>
                </mxCell>
                <mxCell id="101" value="" style="rounded=1;whiteSpace=wrap;html=1;verticalAlign=top;" parent="100" vertex="1">
                    <mxGeometry width="70" height="50" as="geometry"/>
                </mxCell>
                <mxCell id="102" value="" style="rounded=1;whiteSpace=wrap;html=1;verticalAlign=top;" parent="100" vertex="1">
                    <mxGeometry x="10" y="10" width="70" height="50" as="geometry"/>
                </mxCell>
                <mxCell id="103" value="EIB" style="rounded=1;whiteSpace=wrap;html=1;verticalAlign=top;" parent="100" vertex="1">
                    <mxGeometry x="20" y="20" width="70" height="50" as="geometry"/>
                </mxCell>
                <mxCell id="104" value="" style="group" parent="119" vertex="1" connectable="0">
                    <mxGeometry x="530" y="30" width="240" height="390" as="geometry"/>
                </mxCell>
                <mxCell id="105" value="Region A" style="rounded=1;whiteSpace=wrap;html=1;align=center;verticalAlign=top;" parent="104" vertex="1">
                    <mxGeometry width="240" height="390" as="geometry"/>
                </mxCell>
                <mxCell id="106" value="AZ a-b" style="rounded=1;whiteSpace=wrap;html=1;align=center;verticalAlign=top;" parent="104" vertex="1">
                    <mxGeometry x="32.5" y="25" width="175" height="160" as="geometry"/>
                </mxCell>
                <mxCell id="107" value="" style="group" parent="104" vertex="1" connectable="0">
                    <mxGeometry x="75" y="60" width="90" height="90" as="geometry"/>
                </mxCell>
                <mxCell id="108" value="" style="rounded=1;whiteSpace=wrap;html=1;align=center;" parent="107" vertex="1">
                    <mxGeometry width="50" height="50" as="geometry"/>
                </mxCell>
                <mxCell id="109" value="" style="rounded=1;whiteSpace=wrap;html=1;align=center;" parent="107" vertex="1">
                    <mxGeometry x="20" y="20" width="50" height="50" as="geometry"/>
                </mxCell>
                <mxCell id="110" value="" style="rounded=1;whiteSpace=wrap;html=1;align=center;" parent="107" vertex="1">
                    <mxGeometry x="40" y="40" width="50" height="50" as="geometry"/>
                </mxCell>
                <mxCell id="111" value="" style="group" parent="104" vertex="1" connectable="0">
                    <mxGeometry x="45" y="230" width="150" height="130" as="geometry"/>
                </mxCell>
                <mxCell id="112" value="" style="rounded=1;whiteSpace=wrap;html=1;align=center;" parent="111" vertex="1">
                    <mxGeometry width="150" height="130" as="geometry"/>
                </mxCell>
                <mxCell id="113" value="" style="group" parent="111" vertex="1" connectable="0">
                    <mxGeometry x="30" y="30" width="90" height="70" as="geometry"/>
                </mxCell>
                <mxCell id="114" value="" style="rounded=1;whiteSpace=wrap;html=1;verticalAlign=top;" parent="113" vertex="1">
                    <mxGeometry width="70" height="50" as="geometry"/>
                </mxCell>
                <mxCell id="115" value="" style="rounded=1;whiteSpace=wrap;html=1;verticalAlign=top;" parent="113" vertex="1">
                    <mxGeometry x="10" y="10" width="70" height="50" as="geometry"/>
                </mxCell>
                <mxCell id="116" value="EIB" style="rounded=1;whiteSpace=wrap;html=1;verticalAlign=top;" parent="113" vertex="1">
                    <mxGeometry x="20" y="20" width="70" height="50" as="geometry"/>
                </mxCell>
                <mxCell id="117" value="Minimally Viable Edge" style="rounded=1;whiteSpace=wrap;html=1;verticalAlign=top;fillColor=none;" parent="119" vertex="1">
                    <mxGeometry width="780" height="240" as="geometry"/>
                </mxCell>
                <mxCell id="134" value="" style="group" parent="1" vertex="1" connectable="0">
                    <mxGeometry x="40" y="600" width="240" height="200" as="geometry"/>
                </mxCell>
                <mxCell id="9" value="EIB Detail" style="rounded=1;whiteSpace=wrap;html=1;verticalAlign=top;" parent="134" vertex="1">
                    <mxGeometry width="240" height="200" as="geometry"/>
                </mxCell>
                <mxCell id="120" value="AS" style="rounded=1;whiteSpace=wrap;html=1;fillColor=none;" parent="134" vertex="1">
                    <mxGeometry x="15" y="80" width="40" height="40" as="geometry"/>
                </mxCell>
                <mxCell id="123" value="AS" style="rounded=1;whiteSpace=wrap;html=1;fillColor=none;" parent="134" vertex="1">
                    <mxGeometry x="55" y="140" width="40" height="40" as="geometry"/>
                </mxCell>
                <mxCell id="124" value="AS" style="rounded=1;whiteSpace=wrap;html=1;fillColor=none;" parent="134" vertex="1">
                    <mxGeometry x="145" y="140" width="40" height="40" as="geometry"/>
                </mxCell>
                <mxCell id="125" value="AS" style="rounded=1;whiteSpace=wrap;html=1;fillColor=none;" parent="134" vertex="1">
                    <mxGeometry x="185" y="80" width="40" height="40" as="geometry"/>
                </mxCell>
                <mxCell id="129" style="edgeStyle=none;rounded=0;orthogonalLoop=1;jettySize=auto;html=1;exitX=0;exitY=0.5;exitDx=0;exitDy=0;entryX=1;entryY=0.5;entryDx=0;entryDy=0;" parent="134" source="126" target="120" edge="1">
                    <mxGeometry relative="1" as="geometry"/>
                </mxCell>
                <mxCell id="130" value="" style="edgeStyle=none;rounded=0;orthogonalLoop=1;jettySize=auto;html=1;entryX=0.5;entryY=0;entryDx=0;entryDy=0;" parent="134" source="126" target="124" edge="1">
                    <mxGeometry relative="1" as="geometry"/>
                </mxCell>
                <mxCell id="131" style="edgeStyle=none;rounded=0;orthogonalLoop=1;jettySize=auto;html=1;exitX=0;exitY=1;exitDx=0;exitDy=0;entryX=0.5;entryY=0;entryDx=0;entryDy=0;" parent="134" source="126" target="123" edge="1">
                    <mxGeometry relative="1" as="geometry"/>
                </mxCell>
                <mxCell id="133" style="edgeStyle=none;rounded=0;orthogonalLoop=1;jettySize=auto;html=1;exitX=1;exitY=0.5;exitDx=0;exitDy=0;entryX=0;entryY=0.5;entryDx=0;entryDy=0;" parent="134" source="126" target="125" edge="1">
                    <mxGeometry relative="1" as="geometry"/>
                </mxCell>
                <mxCell id="126" value="LB" style="ellipse;whiteSpace=wrap;html=1;aspect=fixed;fillColor=none;" parent="134" vertex="1">
                    <mxGeometry x="100" y="50" width="40" height="40" as="geometry"/>
                </mxCell>
                <mxCell id="136" value="Edge Detail" style="rounded=1;whiteSpace=wrap;html=1;verticalAlign=top;" parent="1" vertex="1">
                    <mxGeometry x="560" y="600" width="240" height="200" as="geometry"/>
                </mxCell>
                <mxCell id="137" value="ADC/&lt;br&gt;WAF" style="rounded=1;whiteSpace=wrap;html=1;fillColor=none;" parent="1" vertex="1">
                    <mxGeometry x="580" y="730" width="40" height="40" as="geometry"/>
                </mxCell>
                <mxCell id="138" value="ADC/&lt;br&gt;WAF" style="rounded=1;whiteSpace=wrap;html=1;fillColor=none;" parent="1" vertex="1">
                    <mxGeometry x="660" y="740" width="40" height="40" as="geometry"/>
                </mxCell>
                <mxCell id="139" value="ADC/&lt;br&gt;WAF" style="rounded=1;whiteSpace=wrap;html=1;fillColor=none;" parent="1" vertex="1">
                    <mxGeometry x="740" y="730" width="40" height="40" as="geometry"/>
                </mxCell>
                <mxCell id="141" style="edgeStyle=none;rounded=0;orthogonalLoop=1;jettySize=auto;html=1;exitX=0;exitY=1;exitDx=0;exitDy=0;entryX=0.5;entryY=0;entryDx=0;entryDy=0;" parent="1" source="145" target="137" edge="1">
                    <mxGeometry relative="1" as="geometry"/>
                </mxCell>
                <mxCell id="142" value="" style="edgeStyle=none;rounded=0;orthogonalLoop=1;jettySize=auto;html=1;entryX=0.5;entryY=0;entryDx=0;entryDy=0;" parent="1" source="145" target="139" edge="1">
                    <mxGeometry relative="1" as="geometry"/>
                </mxCell>
                <mxCell id="143" style="edgeStyle=none;rounded=0;orthogonalLoop=1;jettySize=auto;html=1;exitX=0.5;exitY=1;exitDx=0;exitDy=0;entryX=0.5;entryY=0;entryDx=0;entryDy=0;" parent="1" source="145" target="138" edge="1">
                    <mxGeometry relative="1" as="geometry"/>
                </mxCell>
                <mxCell id="145" value="LB" style="ellipse;whiteSpace=wrap;html=1;aspect=fixed;fillColor=none;" parent="1" vertex="1">
                    <mxGeometry x="660" y="650" width="40" height="40" as="geometry"/>
                </mxCell>
                <mxCell id="146" value="WAFaas" style="ellipse;whiteSpace=wrap;html=1;aspect=fixed;" vertex="1" parent="1">
                    <mxGeometry x="440" y="70" width="60" height="60" as="geometry"/>
                </mxCell>
            </root>
        </mxGraphModel>
    </diagram>
</mxfile>